# xmcd CD database file
#
# Track frame offsets:
#	150
#	8145
#	32732
#	52760
#	78607
#	102386
#	121390
#	147991
#	176781
#	208835
#	228298
#
# Disc length: 3247 seconds
#
# Revision: 4
# Processed by: cddbd v1.5.2PL0 Copyright (c) Steve Scherf et al.
# Submitted via: CDex 1.70beta2
#
DISCID=920cad0b
DTITLE=LOUDNESS - Eve to Dawn
DYEAR=2011
DGENRE=Heavy Metal
TTITLE0=A light in the dark
TTITLE1=The power of truth
TTITLE2=Come alive again
TTITLE3=Survivor
TTITLE4=Keep you burning
TTITLE5=Gonna do it my way
TTITLE6=Hang tough
TTITLE7=喜怒哀楽
TTITLE8=Comes the dawn
TTITLE9=Pandora
TTITLE10=Crazy! Crazy! Crazy!
EXTD=YEAR: 2011
EXTT0=
EXTT1=
EXTT2=
EXTT3=
EXTT4=
EXTT5=
EXTT6=
EXTT7=
EXTT8=
EXTT9=
EXTT10=
PLAYORDER=
